<svg width="97" height="23" viewBox="0 0 97 23" fill="none" xmlns="http://www.w3.org/2000/svg">
<g clip-path="url(#clip0_549_297)">
<g clip-path="url(#clip1_549_297)">
<g clip-path="url(#clip2_549_297)">
<path d="M95.351 11.0527L95.2217 10.9249L95.3381 10.7843C96.1547 9.83352 96.5754 8.61181 96.515 7.36627C96.3792 4.54238 93.8055 2.32544 90.6497 2.32544H83.8727C83.3363 2.32707 82.8221 2.53701 82.441 2.90993C82.0599 3.28286 81.8425 3.78887 81.8357 4.31877V18.5979C81.8357 18.8622 81.8884 19.1239 81.9907 19.3681C82.0931 19.6123 82.2432 19.8341 82.4323 20.021C82.6215 20.2079 82.846 20.3561 83.0932 20.4572C83.3403 20.5584 83.6052 20.6104 83.8727 20.6104H90.6303C92.274 20.6185 93.8628 20.027 95.0924 18.9493C95.6834 18.4482 96.1593 17.8282 96.4883 17.1308C96.8173 16.4334 96.9917 15.6746 97 14.9052C96.9881 13.456 96.3951 12.0706 95.351 11.0527ZM85.7997 5.99266H90.9278C91.1573 5.96393 91.3903 5.98378 91.6114 6.05091C91.8325 6.11804 92.0366 6.2309 92.2101 6.38199C92.3837 6.53307 92.5227 6.71893 92.6179 6.92719C92.7131 7.13546 92.7623 7.36136 92.7623 7.58988C92.7623 7.81841 92.7131 8.04431 92.6179 8.25257C92.5227 8.46083 92.3837 8.64669 92.2101 8.79778C92.0366 8.94887 91.8325 9.06173 91.6114 9.12885C91.3903 9.19598 91.1573 9.21584 90.9278 9.18711H85.7997V5.99266ZM90.9731 16.9496H85.7997V12.8671H90.9731C91.2541 12.8516 91.5354 12.8928 91.7998 12.9884C92.0641 13.084 92.306 13.2318 92.5105 13.4229C92.715 13.6139 92.8779 13.8442 92.9893 14.0997C93.1006 14.3551 93.158 14.6303 93.158 14.9084C93.158 15.1865 93.1006 15.4616 92.9893 15.7171C92.8779 15.9725 92.715 16.2028 92.5105 16.3938C92.306 16.5849 92.0641 16.7327 91.7998 16.8283C91.5354 16.9239 91.2541 16.9651 90.9731 16.9496Z" fill="black"/>
<path d="M73.4742 9.62168C71.9158 9.2064 70.0534 8.72723 69.9822 7.48139C69.9305 6.60612 70.6289 5.87139 71.7671 5.73084C74.0563 5.44334 76.1191 6.77862 77.1926 7.04056C77.43 7.08421 77.674 7.07853 77.9091 7.0239C78.1442 6.96927 78.3652 6.86688 78.558 6.72324C78.7509 6.5796 78.9113 6.39787 79.0291 6.18961C79.147 5.98136 79.2197 5.75114 79.2425 5.51362C79.4171 4.1464 78.0462 3.3989 77.5289 3.08584C76.0823 2.27655 74.4372 1.87853 72.7759 1.93584C68.7019 1.93584 65.863 4.2614 65.863 7.59001C65.825 8.38792 65.9891 9.18258 66.3402 9.9021C66.6914 10.6216 67.2186 11.2433 67.8741 11.7108C70.4608 13.6275 75.5436 13.4167 75.5501 15.4036C75.5501 17.1925 72.2133 18.2978 68.5337 15.8892C68.2651 15.6791 67.9419 15.5481 67.6014 15.5111C67.2608 15.4741 66.9166 15.5326 66.6081 15.68C66.2997 15.8274 66.0395 16.0576 65.8574 16.3443C65.6753 16.631 65.5786 16.9626 65.5784 17.3011C65.577 17.6226 65.6642 17.9385 65.8307 18.2147L65.7595 18.2531H65.8307L65.8953 18.3553C66.2773 18.8746 66.7584 19.3152 67.3115 19.6522C68.899 20.6022 70.7337 21.0709 72.5883 21.0003C74.4525 21.089 76.2915 20.5458 77.8004 19.4606C78.4325 18.9487 78.9364 18.2995 79.2729 17.5637C79.6094 16.8279 79.7694 16.0253 79.7404 15.2183C79.7663 11.7364 76.7334 10.5033 73.4742 9.62168Z" fill="black"/>
<path d="M61.4786 2.33203H60.224C59.8698 2.3324 59.5229 2.43153 59.2232 2.61801C58.9235 2.80449 58.6831 3.07076 58.5298 3.3862L54.223 12.1518L49.9291 3.3862C49.7775 3.07079 49.5384 2.80433 49.2396 2.61775C48.9409 2.43116 48.5947 2.33209 48.2413 2.33203H46.9868C46.4549 2.33862 45.9465 2.54987 45.5698 2.9209C45.193 3.29193 44.9776 3.79348 44.9692 4.31898V18.8218C44.9727 19.1723 45.07 19.5157 45.2513 19.8171C45.4326 20.1185 45.6913 20.3672 46.0013 20.5378C46.3113 20.7085 46.6615 20.795 47.0163 20.7887C47.3711 20.7825 47.7179 20.6835 48.0214 20.502C48.3024 20.3479 48.536 20.1217 48.6976 19.8474C48.8592 19.573 48.9428 19.2606 48.9397 18.9431V10.3245L52.5028 17.0968C52.6637 17.4157 52.9115 17.684 53.2182 17.8716C53.5249 18.0591 53.8784 18.1585 54.2391 18.1585C54.5998 18.1585 54.9534 18.0591 55.2601 17.8716C55.5668 17.684 55.8145 17.4157 55.9754 17.0968L59.5386 10.3373V18.9431C59.5368 19.2603 59.621 19.5722 59.7825 19.8463C59.944 20.1205 60.1768 20.3469 60.4569 20.502C60.7604 20.6835 61.1072 20.7825 61.462 20.7887C61.8168 20.795 62.167 20.7085 62.477 20.5378C62.787 20.3672 63.0457 20.1185 63.227 19.8171C63.4083 19.5157 63.5056 19.1723 63.5091 18.8218V4.31898C63.5023 3.79077 63.2856 3.28638 62.9057 2.91466C62.5258 2.54293 62.0133 2.33367 61.4786 2.33203Z" fill="black"/>
<path d="M17.1884 21.1216L6.36965 8.38216C5.49091 7.34302 5.06547 6.00183 5.18671 4.65306C5.30795 3.30428 5.96597 2.05816 7.01631 1.18827C8.06811 0.320109 9.42563 -0.100221 10.7908 0.0195634C12.156 0.139348 13.4173 0.789456 14.2978 1.82716L25.123 14.5411C26.0017 15.5802 26.4272 16.9214 26.3059 18.2702C26.1847 19.6189 25.5266 20.8651 24.4763 21.7349C23.4274 22.6081 22.0705 23.034 20.7038 22.919C19.3372 22.8039 18.0727 22.1575 17.1884 21.1216Z" fill="url(#paint0_radial_549_297)"/>
<path d="M28.8866 6.17163L26.2029 18.86C26.0672 19.5191 25.8012 20.1453 25.4201 20.7027C25.0389 21.2601 24.5502 21.7376 23.9819 22.108C23.4135 22.4784 22.7768 22.7343 22.1082 22.861C21.4395 22.9878 20.7522 22.9829 20.0854 22.8466C19.4167 22.7106 18.7818 22.4452 18.2173 22.0656C17.6529 21.686 17.1701 21.1998 16.7968 20.635C16.4235 20.0702 16.167 19.4379 16.0422 18.7747C15.9174 18.1115 15.9267 17.4304 16.0696 16.7708L18.7533 4.08246C19.0347 2.75843 19.836 1.59864 20.9815 0.857328C22.127 0.116012 23.5233 -0.146354 24.8643 0.12774C25.5303 0.263222 26.1628 0.527096 26.7255 0.904268C27.2882 1.28144 27.7701 1.76451 28.1437 2.32585C28.5172 2.88719 28.7752 3.51578 28.9026 4.17567C29.0301 4.83557 29.0246 5.51382 28.8866 6.17163Z" fill="url(#paint1_radial_549_297)"/>
<path d="M30.6843 21.1216L19.8656 8.38216C18.9869 7.34302 18.5614 6.00183 18.6826 4.65306C18.8039 3.30428 19.4619 2.05816 20.5123 1.18827C21.5641 0.320109 22.9216 -0.100221 24.2868 0.0195634C25.652 0.139348 26.9132 0.789456 27.7937 1.82716L38.5995 14.5411C39.4783 15.5802 39.9037 16.9214 39.7825 18.2702C39.6612 19.6189 39.0032 20.8651 37.9529 21.7349C36.905 22.6021 35.5525 23.0244 34.1906 22.9094C32.8286 22.7945 31.5681 22.1518 30.6843 21.1216Z" fill="url(#paint2_radial_549_297)"/>
<path d="M10.3208 17.4225C10.4073 18.4655 10.1676 19.5096 9.63423 20.4137C9.10082 21.3178 8.29936 22.0384 7.33814 22.4781C6.37691 22.9177 5.30225 23.0552 4.25936 22.8721C3.21648 22.689 2.25562 22.194 1.50663 21.454C0.757638 20.714 0.256609 19.7647 0.0712367 18.7343C-0.114136 17.704 0.0250815 16.6423 0.470085 15.6926C0.915088 14.7429 1.64443 13.9511 2.55956 13.4241C3.47468 12.8971 4.53149 12.6604 5.58718 12.7458C6.80916 12.8448 7.95587 13.3692 8.82284 14.2258C9.6898 15.0823 10.2207 16.2152 10.3208 17.4225Z" fill="url(#paint3_radial_549_297)"/>
</g>
</g>
</g>
<defs>
<radialGradient id="paint0_radial_549_297" cx="0" cy="0" r="1" gradientUnits="userSpaceOnUse" gradientTransform="translate(18.0814 6.50798) scale(10.2303 10.1072)">
<stop stop-color="#9D0B0F"/>
<stop offset="0.07" stop-color="#AA0E12"/>
<stop offset="0.26" stop-color="#C7141A"/>
<stop offset="0.44" stop-color="#DB1820"/>
<stop offset="0.62" stop-color="#E81B23"/>
<stop offset="0.8" stop-color="#EC1C24"/>
</radialGradient>
<radialGradient id="paint1_radial_549_297" cx="0" cy="0" r="1" gradientUnits="userSpaceOnUse" gradientTransform="translate(27.5868 11.9817) scale(10.2642 10.1408)">
<stop offset="0.3" stop-color="#9D0B0F"/>
<stop offset="0.35" stop-color="#AA0E12"/>
<stop offset="0.48" stop-color="#C7141A"/>
<stop offset="0.6" stop-color="#DB1820"/>
<stop offset="0.73" stop-color="#E81B23"/>
<stop offset="0.85" stop-color="#EC1C24"/>
</radialGradient>
<radialGradient id="paint2_radial_549_297" cx="0" cy="0" r="1" gradientUnits="userSpaceOnUse" gradientTransform="translate(20.2158 1.18827) scale(21.8977 21.6344)">
<stop offset="0.35" stop-color="#EC1C24"/>
<stop offset="1" stop-color="#F26F21"/>
</radialGradient>
<radialGradient id="paint3_radial_549_297" cx="0" cy="0" r="1" gradientUnits="userSpaceOnUse" gradientTransform="translate(3.17965 19.5021) scale(7.68402 7.5916)">
<stop offset="0.3" stop-color="#EC1C24"/>
<stop offset="1" stop-color="#9D0B0F"/>
</radialGradient>
<clipPath id="clip0_549_297">
<rect width="97" height="23" fill="white"/>
</clipPath>
<clipPath id="clip1_549_297">
<rect width="97" height="23" fill="white"/>
</clipPath>
<clipPath id="clip2_549_297">
<rect width="97" height="22.9361" fill="white"/>
</clipPath>
</defs>
</svg>
